# xmcd
#
# Track frame offsets: 
#        150
#        30838
#        50866
#        80125
#        103573
#        125795
#        152959
#
# Disc length: 2614 seconds
#
# Revision: 0
# Processed by: cddbd v1.5.2PL0 Copyright (c) Steve Scherf et al.
# Submitted via: ExactAudioCopy v1.2
#
DISCID=5b0a3407
DTITLE=Kai Strauss and The Electric Blues All Stars - Live in Concert (D
DTITLE=isc 2)
DYEAR=2019
DGENRE=Blues
TTITLE0=The Blues Is Handmade
TTITLE1=This Game Ain't Worth Playing No More
TTITLE2=Let Me Love You Baby
TTITLE3=Put That Bottle Down
TTITLE4=Got To Be Some Changes Made
TTITLE5=I Ain't Buying It
TTITLE6=Shades Of Earl (Tribute to Ronnie Earl and Earl Hooker)
EXTD=
EXTT0=
EXTT1=
EXTT2=
EXTT3=
EXTT4=
EXTT5=
EXTT6=
PLAYORDER=
